<?xml version="1.0" encoding="iso-8859-1"?>
<!-- Uploaded to: SVG Repo, www.svgrepo.com, Generator: SVG Repo Mixer Tools -->
<!DOCTYPE svg PUBLIC "-//W3C//DTD SVG 1.1//EN" "http://www.w3.org/Graphics/SVG/1.1/DTD/svg11.dtd">
<svg fill="#000000" height="800px" width="800px" version="1.1" id="Capa_1" xmlns="http://www.w3.org/2000/svg" xmlns:xlink="http://www.w3.org/1999/xlink" 
	 viewBox="0 0 320 320" xml:space="preserve">
<g>
	<path d="M157.859,212.062c43.419,0,78.742-35.976,78.742-80.196c0-44.22-35.323-80.195-78.742-80.195
		c-43.42,0-78.744,35.976-78.744,80.195C79.115,176.086,114.439,212.062,157.859,212.062z M157.859,71.67
		c32.391,0,58.742,27.004,58.742,60.195c0,33.192-26.352,60.196-58.742,60.196c-32.392,0-58.744-27.004-58.744-60.196
		C99.115,98.674,125.468,71.67,157.859,71.67z"/>
	<path d="M132.249,131.865c0-14.536,11.488-26.361,25.61-26.361c5.522,0,10-4.478,10-10s-4.478-10-10-10
		c-25.149,0-45.61,20.798-45.61,46.361c0,5.522,4.478,10,10,10S132.249,137.388,132.249,131.865z"/>
	<path d="M228.095,270.354H91.905c-5.522,0-10,4.478-10,10s4.478,10,10,10h136.189c5.522,0,10-4.478,10-10
		S233.617,270.354,228.095,270.354z"/>
	<path d="M308.883,284.413l-25.488-44.587c-5.261-9.204-15.041-17.126-25.688-21.646c19.7-23.147,31.637-53.336,31.637-86.315
		C289.344,59.154,231.32,0,160,0S30.657,59.154,30.657,131.865c0,32.979,11.937,63.168,31.636,86.315
		c-10.647,4.519-20.427,12.441-25.688,21.646l-25.488,44.587c-4.942,8.645-5.438,17.634-1.36,24.663
		C13.785,316.019,21.672,320,31.395,320h257.211c9.723,0,17.609-3.981,21.638-10.924
		C314.32,302.047,313.825,293.058,308.883,284.413z M160,20c60.292,0,109.344,50.183,109.344,111.865
		c0,61.684-49.052,111.866-109.344,111.866S50.657,193.549,50.657,131.865C50.657,70.183,99.708,20,160,20z M292.953,299.024
		c-0.165,0.206-1.387,0.976-4.348,0.976H31.395c-2.961,0-4.183-0.77-4.332-0.95c-0.109-0.252-0.198-1.884,1.418-4.711l25.488-44.587
		c4.356-7.621,15.662-14.602,24.634-15.488c22.245,18.414,50.576,29.468,81.397,29.468s59.152-11.054,81.397-29.468
		c8.972,0.886,20.278,7.867,24.634,15.488l25.488,44.587C293.136,297.166,293.047,298.798,292.953,299.024z"/>
</g>
</svg>